<svg width="45" height="46" viewBox="0 0 45 46" fill="none" xmlns="http://www.w3.org/2000/svg">
<g clip-path="url(#clip0_1187_1602)">
<path d="M15.7696 32.1754H29.908M21.1028 7.01619L9.11641 16.3389C8.31517 16.9621 7.91455 17.2737 7.62593 17.6639C7.37027 18.0096 7.17982 18.399 7.06393 18.813C6.93311 19.2804 6.93311 19.7879 6.93311 20.803V33.5893C6.93311 35.5688 6.93311 36.5586 7.31835 37.3147C7.65723 37.9798 8.19795 38.5205 8.86303 38.8594C9.61912 39.2446 10.6089 39.2446 12.5885 39.2446H33.0891C35.0687 39.2446 36.0585 39.2446 36.8146 38.8594C37.4796 38.5205 38.0204 37.9798 38.3592 37.3147C38.7445 36.5586 38.7445 35.5688 38.7445 33.5893V20.803C38.7445 19.7879 38.7445 19.2804 38.6137 18.813C38.4978 18.399 38.3073 18.0096 38.0517 17.6639C37.763 17.2737 37.3624 16.9621 36.5612 16.3389L24.5748 7.01619C23.9539 6.53327 23.6435 6.29181 23.3007 6.199C22.9982 6.1171 22.6794 6.1171 22.3769 6.199C22.0341 6.29181 21.7237 6.53327 21.1028 7.01619Z" stroke="black" stroke-width="3" stroke-linecap="round" stroke-linejoin="round"/>
</g>
<defs>
<clipPath id="clip0_1187_1602">
<rect width="45" height="45" fill="white" transform="translate(0 0.5)"/>
</clipPath>
</defs>
</svg>
