<svg viewBox="0 0 24 24" fill="none" xmlns="http://www.w3.org/2000/svg">
<path d="M8.31055 17.3107H16.3105M11.3282 3.07467L4.54594 8.34979C4.09257 8.70241 3.86588 8.87872 3.70257 9.09953C3.55791 9.29511 3.45015 9.51545 3.38457 9.74972C3.31055 10.0142 3.31055 10.3014 3.31055 10.8757V18.1107C3.31055 19.2308 3.31055 19.7908 3.52853 20.2186C3.72028 20.595 4.02624 20.9009 4.40257 21.0927C4.83039 21.3107 5.39044 21.3107 6.51055 21.3107H18.1105C19.2307 21.3107 19.7907 21.3107 20.2185 21.0927C20.5949 20.9009 20.9008 20.595 21.0926 20.2186C21.3105 19.7908 21.3105 19.2308 21.3105 18.1107V10.8757C21.3105 10.3014 21.3105 10.0142 21.2365 9.74972C21.1709 9.51545 21.0632 9.29511 20.9185 9.09953C20.7552 8.87872 20.5285 8.70241 20.0752 8.34979L13.2929 3.07467C12.9415 2.80141 12.7659 2.66479 12.5719 2.61227C12.4007 2.56593 12.2204 2.56593 12.0492 2.61227C11.8552 2.66479 11.6796 2.80141 11.3282 3.07467Z" stroke="black" stroke-width="1.69751" stroke-linecap="round" stroke-linejoin="round"/>
</svg>
