<svg width="194" height="184" viewBox="0 0 194 184" fill="none" xmlns="http://www.w3.org/2000/svg">
<rect width="194" height="184" fill="#FDFDFD"/>
<path d="M151.541 61.6994L96.9998 92.0003M96.9998 92.0003L42.4581 61.6994M96.9998 92.0003L97 152.959M154.75 118.043V65.9581C154.75 63.7595 154.75 62.6602 154.426 61.6797C154.139 60.8123 153.671 60.0161 153.052 59.3444C152.352 58.585 151.391 58.0512 149.469 56.9834L101.986 30.6038C100.166 29.5928 99.2563 29.0873 98.2927 28.8891C97.4398 28.7137 96.5602 28.7137 95.7074 28.8891C94.7438 29.0873 93.8339 29.5928 92.0141 30.6038L44.5307 56.9834C42.6088 58.0512 41.6478 58.5851 40.9481 59.3444C40.329 60.0161 39.8605 60.8123 39.5739 61.6797C39.25 62.6602 39.25 63.7595 39.25 65.9581V118.043C39.25 120.242 39.25 121.341 39.5739 122.321C39.8605 123.189 40.329 123.985 40.9481 124.657C41.6478 125.416 42.6088 125.95 44.5307 127.018L92.0141 153.397C93.8339 154.408 94.7438 154.914 95.7074 155.112C96.5602 155.287 97.4398 155.287 98.2927 155.112C99.2563 154.914 100.166 154.408 101.986 153.397L149.469 127.018C151.391 125.95 152.352 125.416 153.052 124.657C153.671 123.985 154.139 123.189 154.426 122.321C154.75 121.341 154.75 120.242 154.75 118.043Z" stroke="#545454" stroke-width="8" stroke-linecap="round" stroke-linejoin="round"/>
</svg>
