<svg width="45" height="46" viewBox="0 0 45 46" fill="none" xmlns="http://www.w3.org/2000/svg">
<path d="M36.6666 15.1296L22.4999 22.9999M22.4999 22.9999L8.33328 15.1296M22.4999 22.9999L22.5 38.8333M37.5 29.7642V16.2357C37.5 15.6646 37.5 15.3791 37.4159 15.1244C37.3414 14.8992 37.2197 14.6924 37.0589 14.5179C36.8772 14.3206 36.6276 14.182 36.1284 13.9046L23.7951 7.05278C23.3224 6.79019 23.086 6.65889 22.8358 6.60741C22.6142 6.56185 22.3858 6.56185 22.1643 6.60741C21.914 6.65889 21.6776 6.79019 21.205 7.05278L8.87162 13.9046C8.37241 14.182 8.12281 14.3206 7.94106 14.5179C7.78026 14.6924 7.65858 14.8992 7.58414 15.1245C7.5 15.3791 7.5 15.6647 7.5 16.2357V29.7642C7.5 30.3353 7.5 30.6208 7.58414 30.8755C7.65858 31.1008 7.78026 31.3076 7.94106 31.4821C8.12281 31.6793 8.37241 31.818 8.87162 32.0953L21.205 38.9472C21.6776 39.2098 21.914 39.3411 22.1643 39.3925C22.3858 39.4381 22.6142 39.4381 22.8358 39.3925C23.086 39.3411 23.3224 39.2098 23.795 38.9472L36.1284 32.0953C36.6276 31.818 36.8772 31.6793 37.0589 31.4821C37.2197 31.3076 37.3414 31.1008 37.4159 30.8755C37.5 30.6208 37.5 30.3353 37.5 29.7642Z" stroke="black" stroke-width="3" stroke-linecap="round" stroke-linejoin="round"/>
<path d="M30 18.8333L15 10.5" stroke="black" stroke-width="3" stroke-linecap="round" stroke-linejoin="round"/>
</svg>
