<svg width="20" height="20" viewBox="0 0 20 20" fill="none" xmlns="http://www.w3.org/2000/svg">
<g clip-path="url(#clip0_3658_1955)">
<path d="M5.4165 10.8333L6.07022 12.1407C6.29146 12.5832 6.40208 12.8044 6.54986 12.9962C6.681 13.1663 6.83351 13.3188 7.00363 13.4499C7.19535 13.5977 7.41659 13.7083 7.85907 13.9296L9.1665 14.5833L7.85907 15.237C7.41659 15.4582 7.19535 15.5689 7.00363 15.7167C6.83351 15.8478 6.681 16.0003 6.54986 16.1704C6.40208 16.3621 6.29146 16.5834 6.07022 17.0259L5.4165 18.3333L4.76279 17.0259C4.54155 16.5834 4.43093 16.3621 4.28315 16.1704C4.15201 16.0003 3.9995 15.8478 3.82938 15.7167C3.63766 15.5689 3.41642 15.4582 2.97393 15.237L1.6665 14.5833L2.97393 13.9296C3.41642 13.7083 3.63766 13.5977 3.82938 13.4499C3.9995 13.3188 4.15201 13.1663 4.28315 12.9962C4.43093 12.8044 4.54155 12.5832 4.76279 12.1407L5.4165 10.8333Z" stroke="#191F26" stroke-width="1.5" stroke-linecap="round" stroke-linejoin="round"/>
<path d="M12.4998 1.66663L13.482 4.22031C13.717 4.83133 13.8345 5.13685 14.0173 5.39383C14.1792 5.62159 14.3782 5.82058 14.606 5.98253C14.863 6.16526 15.1685 6.28276 15.7795 6.51777L18.3332 7.49996L15.7795 8.48214C15.1685 8.71715 14.863 8.83466 14.606 9.01739C14.3782 9.17934 14.1792 9.37833 14.0173 9.60609C13.8345 9.86307 13.717 10.1686 13.482 10.7796L12.4998 13.3333L11.5177 10.7796C11.2826 10.1686 11.1651 9.86307 10.9824 9.60609C10.8205 9.37833 10.6215 9.17934 10.3937 9.01739C10.1367 8.83466 9.83121 8.71715 9.22019 8.48214L6.6665 7.49996L9.22019 6.51777C9.83121 6.28276 10.1367 6.16526 10.3937 5.98253C10.6215 5.82058 10.8205 5.62159 10.9824 5.39383C11.1651 5.13685 11.2826 4.83133 11.5177 4.22031L12.4998 1.66663Z" stroke="#191F26" stroke-width="1.5" stroke-linecap="round" stroke-linejoin="round"/>
</g>
<defs>
<clipPath id="clip0_3658_1955">
<rect width="20" height="20" fill="white"/>
</clipPath>
</defs>
</svg>
