<svg width="45" height="46" viewBox="0 0 45 46" fill="none" xmlns="http://www.w3.org/2000/svg">
<path d="M12.5002 12.5L20.0002 20M12.5002 12.5H7.50016L5.8335 7.50004L7.50016 5.83337L12.5002 7.50004V12.5ZM34.5985 7.06839L30.2191 11.4478C29.5591 12.1078 29.2291 12.4378 29.1054 12.8183C28.9967 13.1531 28.9967 13.5137 29.1054 13.8484C29.2291 14.2289 29.5591 14.559 30.2191 15.219L30.6145 15.6144C31.2746 16.2745 31.6046 16.6045 31.9851 16.7281C32.3199 16.8369 32.6805 16.8369 33.0152 16.7281C33.3957 16.6045 33.7258 16.2745 34.3858 15.6144L38.4823 11.5179C38.9235 12.5915 39.1668 13.7674 39.1668 15C39.1668 20.0627 35.0628 24.1667 30.0002 24.1667C29.3898 24.1667 28.7934 24.1071 28.2164 23.9933C27.4062 23.8335 27.0011 23.7536 26.7555 23.778C26.4944 23.8041 26.3657 23.8432 26.1343 23.967C25.9167 24.0835 25.6984 24.3018 25.2619 24.7383L13.3335 36.6667C11.9528 38.0474 9.71421 38.0474 8.3335 36.6667C6.95279 35.286 6.95279 33.0474 8.3335 31.6667L20.2619 19.7383C20.6985 19.3018 20.9167 19.0835 21.0332 18.8659C21.157 18.6345 21.1961 18.5058 21.2222 18.2447C21.2466 17.9991 21.1667 17.594 21.0069 16.7838C20.8931 16.2068 20.8335 15.6104 20.8335 15C20.8335 9.93743 24.9376 5.83337 30.0002 5.83337C31.676 5.83337 33.2468 6.28308 34.5985 7.06839ZM22.5002 27.4999L31.6668 36.6665C33.0475 38.0472 35.2861 38.0472 36.6668 36.6665C38.0475 35.2858 38.0475 33.0472 36.6668 31.6665L29.1257 24.1255C28.5918 24.075 28.0713 23.9787 27.5681 23.8406C26.9197 23.6626 26.2084 23.7918 25.7329 24.2673L22.5002 27.4999Z" stroke="black" stroke-width="3" stroke-linecap="round" stroke-linejoin="round"/>
</svg>
